<?xml version="1.0" standalone="no"?>
<!DOCTYPE svg PUBLIC "-//W3C//DTD SVG 20010904//EN"
 "http://www.w3.org/TR/2001/REC-SVG-20010904/DTD/svg10.dtd">
<svg version="1.0" xmlns="http://www.w3.org/2000/svg"
 width="260.000000pt" height="260.000000pt" viewBox="0 0 260.000000 260.000000"
 preserveAspectRatio="xMidYMid meet">
<metadata>
Created by potrace 1.11, written by Peter Selinger 2001-2013
</metadata>
<g transform="translate(0.000000,260.000000) scale(0.100000,-0.100000)"
fill="#000000" stroke="none">
<path d="M1132 2590 c-549 -78 -984 -480 -1103 -1020 -31 -138 -33 -389 -5
-520 55 -253 163 -462 333 -641 188 -197 409 -322 673 -380 138 -31 389 -33
520 -5 253 55 462 163 641 333 197 188 322 409 380 673 31 138 33 389 5 520
-55 253 -163 462 -333 641 -184 193 -399 317 -653 375 -118 28 -348 40 -458
24z m463 -692 c81 -25 119 -43 159 -79 147 -129 154 -378 14 -504 -73 -67
-184 -104 -355 -121 l-73 -7 0 31 c0 25 8 35 49 62 66 42 125 108 141 156 20
59 18 180 -3 236 -35 90 -130 155 -254 172 l-43 6 0 -513 0 -513 103 -33 c56
-18 105 -36 110 -40 4 -4 4 -22 1 -39 l-6 -32 -359 0 -359 0 6 28 c3 15 7 32
9 38 2 6 37 26 79 44 l76 34 0 476 0 476 -77 34 c-43 18 -79 34 -81 36 -2 1 0
19 4 39 l7 37 401 -5 c321 -3 411 -7 451 -19z"/>
</g>
</svg>
